<?xml version="1.0" encoding="utf-8"?>
<!-- Generator: Adobe Illustrator 23.0.2, SVG Export Plug-In . SVG Version: 6.00 Build 0)  -->
<svg version="1.1" id="Laag_1" xmlns="http://www.w3.org/2000/svg" xmlns:xlink="http://www.w3.org/1999/xlink" x="0px" y="0px"
	 viewBox="0 0 221.45 221.2" style="enable-background:new 0 0 221.45 221.2;" xml:space="preserve">
<style type="text/css">
	.st0{fill:#D1CFC1;}
	.st1{fill:#BFBEB2;}
	.st2{fill:#EEEBDA;}
	.st3{fill:#514037;}
	.st4{fill:#634E42;}
	.st5{fill:#322F28;}
	.st6{fill:#6B755E;}
	.st7{fill:#5F6650;}
	.st8{fill:#696864;}
	.st9{fill:#3F3B32;}
	.st10{fill:#5E5F5C;}
	.st11{fill:#8D967F;}
	.st12{fill:#B6B6AE;}
</style>
<g>
	<g>
		<path class="st0" d="M0.28,25l15.08,68.84c1.68,7.67,10.47,11.35,17.12,7.17l40.46-25.47c6.65-4.18,7.13-13.7,0.94-18.53
			L18.34,13.63C9.97,7.1-1.99,14.62,0.28,25z"/>
		<path class="st1" d="M14.56,42.28L24.98,89.8c0.42,1.92,2.62,2.84,4.28,1.79l27.93-17.58c1.66-1.05,1.78-3.42,0.23-4.63
			L19.08,39.44C16.98,37.81,14,39.69,14.56,42.28z"/>
	</g>
	<g>
		<path class="st0" d="M221.17,25l-15.08,68.84c-1.68,7.67-10.47,11.35-17.12,7.17L148.5,75.54c-6.65-4.18-7.13-13.7-0.94-18.53
			l55.55-43.38C211.48,7.1,223.44,14.62,221.17,25z"/>
		<path class="st1" d="M206.88,42.28L196.47,89.8c-0.42,1.92-2.62,2.84-4.28,1.79l-27.93-17.58c-1.66-1.05-1.78-3.42-0.23-4.63
			l38.34-29.94C204.46,37.81,207.45,39.69,206.88,42.28z"/>
	</g>
	<g>
		<ellipse class="st2" cx="112.31" cy="126.71" rx="99.1" ry="94.49"/>
		<path class="st0" d="M137.63,213.14c-54.92,0-99.45-42.29-99.45-94.46c0-37.08,22.5-69.16,55.23-84.63
			c-45.71,8.52-80.2,46.77-80.2,92.69c0,52.17,44.53,94.46,99.45,94.46c15.89,0,30.9-3.54,44.22-9.84
			C150.65,212.53,144.22,213.14,137.63,213.14z"/>
	</g>
	<g>
		<path class="st3" d="M113.96,174.52l10.23-14.37c1.34-1.88-0.01-4.48-2.31-4.48h-20.45c-2.3,0-3.65,2.6-2.31,4.48l10.23,14.37
			C110.48,176.11,112.83,176.11,113.96,174.52z"/>
		<path class="st4" d="M118.39,168.22l5.74-8.06c1.34-1.88-0.01-4.48-2.31-4.48h-18.44L118.39,168.22z"/>
	</g>
	<g>
		<g>
			<path class="st5" d="M14.63,133.54c-0.26,16.67-3.12,36.14,4.82,51.54c8.05,15.61,25.04,17.87,40.95,18.27
				c3.22,0.08,3.22-4.92,0-5c-15.75-0.4-32.14-2.73-38.24-19.49c-5.09-14.01-2.76-30.71-2.54-45.33
				C19.68,130.32,14.68,130.32,14.63,133.54L14.63,133.54z"/>
		</g>
	</g>
	<path class="st6" d="M24.18,91.63c0-3.27,2.74-5.95,6.09-5.95h161.84c3.35,0,6.09,2.68,6.09,5.95v2.33
		c3.73-7.55,5.78-15.72,5.78-24.25c0-38.5-41.54-69.71-92.79-69.71C59.95,0,18.4,31.21,18.4,69.71c0,8.53,2.05,16.69,5.78,24.25
		V91.63z"/>
	<path class="st7" d="M22.03,145.46h-10.5c-1.56,0-2.83-1.28-2.83-2.83V85.43c0-4.7,3.81-8.5,8.5-8.5h7.67v65.69
		C24.87,144.18,23.59,145.46,22.03,145.46z"/>
	<path class="st6" d="M200.92,145.46h10.5c1.56,0,2.83-1.28,2.83-2.83V85.43c0-4.7-3.81-8.5-8.5-8.5h-7.67v65.69
		C198.08,144.18,199.36,145.46,200.92,145.46z"/>
	<path class="st8" d="M88,145.46H42.92c-6.6,0-12-5.4-12-12V93.96h74.61c3.12,0,5.67,2.55,5.67,5.67v22.63
		C111.19,135.02,100.76,145.46,88,145.46z"/>
	<path class="st8" d="M134.39,145.46h45.08c6.6,0,12-5.4,12-12V93.96h-74.61c-3.12,0-5.67,2.55-5.67,5.67v22.63
		C111.19,135.02,121.63,145.46,134.39,145.46z"/>
	<path class="st8" d="M150.72,93.96h-90.6c-2.19,0-3.99,1.79-3.99,3.99v0.6c0,2.19,1.79,3.99,3.99,3.99h90.6
		c2.19,0,3.99-1.79,3.99-3.99v-0.6C154.7,95.75,152.91,93.96,150.72,93.96z"/>
	<path class="st9" d="M56.89,211.95h34.37c1.56,0,2.83-1.28,2.83-2.83v-15.34c0-1.56-1.28-2.83-2.83-2.83H56.89
		c-1.56,0-2.83,1.28-2.83,2.83v15.34C54.05,210.67,55.33,211.95,56.89,211.95z"/>
	<path class="st10" d="M33.47,99.42c-1.04-0.87-1.89-1.89-2.56-3v37.04c0,6.6,5.4,12,12,12H88c0.18,0,0.36-0.01,0.54-0.01
		L33.47,99.42z"/>
	<g>
		<path class="st7" d="M54.22,44.44c0-15.61,6.34-29.33,15.92-37.25C39.48,18.57,18.4,42.29,18.4,69.71
			c0,8.53,2.05,16.69,5.78,24.25v-2.34c0-3.27,2.74-5.95,6.09-5.95h45.89C63.3,79.11,54.22,63.13,54.22,44.44z"/>
	</g>
	<path class="st11" d="M190.84,52.7c-0.07-0.42-0.17-0.82-0.27-1.22c0,0,0,0,0.01,0c0-0.01-0.01-0.02-0.02-0.03
		c-0.37-1.33-0.94-2.52-1.66-3.53c-5.62-10.85-15.62-20.06-28.4-26.37c9.36,7.78,15.28,18.82,15.51,31.11c0,0,0,0,0.01,0
		c-0.04,0.8,0,1.63,0.14,2.47c0.85,5.17,4.83,8.83,8.89,8.16C189.1,62.61,191.69,57.87,190.84,52.7z"/>
	<path class="st12" d="M154.3,93.96h-8.6l43.6,46.32c1.35-1.94,2.15-4.29,2.15-6.83v-0.02L154.3,93.96z"/>
	<g>
		<polygon class="st12" points="191.45,128.25 191.45,118.96 167.91,93.96 159.16,93.96 		"/>
	</g>
	<path class="st5" d="M60.48,190.95h-3.59c-1.56,0-2.83,1.28-2.83,2.83v15.34c0,1.56,1.28,2.83,2.83,2.83h27.78L60.48,190.95z"/>
</g>
</svg>
